<svg width="120" height="24" fill="none" xmlns="http://www.w3.org/2000/svg"><path d="M11.48 3.499a.562.562 0 0 1 1.04 0l2.125 5.111a.562.562 0 0 0 .475.345l5.518.442c.499.04.7.663.32.988l-4.203 3.602a.562.562 0 0 0-.182.557l1.285 5.385a.562.562 0 0 1-.84.61l-4.725-2.885a.563.563 0 0 0-.586 0L6.982 20.54a.562.562 0 0 1-.84-.61l1.285-5.386a.562.562 0 0 0-.182-.557L3.04 10.385a.563.563 0 0 1 .32-.988l5.519-.442a.563.563 0 0 0 .475-.345l2.125-5.111ZM35.48 3.499a.562.562 0 0 1 1.04 0l2.125 5.111a.562.562 0 0 0 .475.345l5.518.442c.499.04.7.663.32.988l-4.203 3.602a.562.562 0 0 0-.182.557l1.285 5.385a.562.562 0 0 1-.84.61l-4.725-2.885a.563.563 0 0 0-.586 0l-4.725 2.886a.562.562 0 0 1-.84-.61l1.285-5.386a.562.562 0 0 0-.182-.557l-4.204-3.602a.563.563 0 0 1 .32-.988l5.519-.442a.563.563 0 0 0 .475-.345l2.125-5.111ZM59.48 3.499a.562.562 0 0 1 1.04 0l2.125 5.111a.562.562 0 0 0 .475.345l5.518.442c.499.04.7.663.32.988l-4.203 3.602a.562.562 0 0 0-.182.557l1.285 5.385a.562.562 0 0 1-.84.61l-4.725-2.885a.563.563 0 0 0-.586 0l-4.725 2.886a.562.562 0 0 1-.84-.61l1.285-5.386a.562.562 0 0 0-.182-.557l-4.204-3.602a.563.563 0 0 1 .32-.988l5.519-.442a.563.563 0 0 0 .475-.345l2.125-5.111ZM83.48 3.499a.562.562 0 0 1 1.04 0l2.125 5.111a.562.562 0 0 0 .475.345l5.518.442c.499.04.7.663.32.988l-4.203 3.602a.562.562 0 0 0-.182.557l1.285 5.385a.562.562 0 0 1-.84.61l-4.725-2.885a.563.563 0 0 0-.586 0l-4.725 2.886a.562.562 0 0 1-.84-.61l1.285-5.386a.562.562 0 0 0-.182-.557l-4.204-3.602a.563.563 0 0 1 .32-.988l5.519-.442a.563.563 0 0 0 .475-.345l2.125-5.111Z" fill="#FFC107" stroke="#FFC107" stroke-width="1.5" stroke-linecap="round" stroke-linejoin="round"/><path d="M107.48 3.499a.558.558 0 0 1 .52-.349.564.564 0 0 1 .52.349l2.125 5.111a.556.556 0 0 0 .475.345l5.518.442c.499.04.701.663.321.988l-4.204 3.602a.561.561 0 0 0-.182.557l1.285 5.385a.565.565 0 0 1-.525.692.558.558 0 0 1-.315-.082l-4.725-2.885a.566.566 0 0 0-.586 0l-4.725 2.886a.564.564 0 0 1-.821-.284.565.565 0 0 1-.019-.326l1.285-5.386a.571.571 0 0 0-.182-.557l-4.204-3.602a.563.563 0 0 1 .32-.988l5.519-.442a.564.564 0 0 0 .475-.345l2.125-5.111Z" stroke="#FFC107" stroke-width="1.5" stroke-linecap="round" stroke-linejoin="round"/></svg>